<svg xmlns="http://www.w3.org/2000/svg" viewBox="0 0 144 144" role="img" aria-label="Portrait">
  <defs>
    <clipPath id="crin-asakura"><circle cx="72" cy="72" r="68"/></clipPath>
    <linearGradient id="brin-asakura" x1="0" y1="0" x2="0" y2="1">
      <stop offset="0%" stop-color="#dbeafe"/><stop offset="100%" stop-color="#ffffff"/>
    </linearGradient>
  </defs>
  <g clip-path="url(#crin-asakura)">
    <rect width="144" height="144" fill="url(#brin-asakura)"/>
    <circle cx="112" cy="26" r="30" fill="#60a5fa" opacity="0.25"/>
    <!-- shoulders -->
    <path d="M18 144v-14c0-20 18-30 54-30s54 10 54 30v14z" fill="#2563eb"/>
    <path d="M60 100h24v12c0 7-24 7-24 0z" fill="#eebf9c"/>
    <!-- head -->
    <circle cx="72" cy="66" r="26" fill="#eebf9c"/>
    <!-- hair -->
    <path d="M48 50a24 24 0 0 1 48 0v4c0 3-3 4-5 2-5-6-11-9-19-9s-14 3-19 9c-2 2-5 1-5-2zM44 50h6v18c0 3-6 3-6 0z" fill="#3b2f2f"/>
    <!-- features -->
    <circle cx="63" cy="66" r="2.6" fill="#36302f"/>
    <circle cx="81" cy="66" r="2.6" fill="#36302f"/>
    <path d="M66 78c4 3 8 3 12 0" stroke="#b9735c" stroke-width="2.4" fill="none" stroke-linecap="round"/>
    <path d="M60 102l12 10 12-10" stroke="#ffffff" stroke-width="3" fill="none" stroke-linecap="round"/>
  </g>
  <circle cx="72" cy="72" r="68" fill="none" stroke="#2563eb" stroke-opacity="0.25" stroke-width="3"/>
</svg>
