<svg xmlns="http://www.w3.org/2000/svg" viewBox="0 0 144 144" role="img" aria-label="Portrait">
  <defs>
    <clipPath id="cyuki-tanaka"><circle cx="72" cy="72" r="68"/></clipPath>
    <linearGradient id="byuki-tanaka" x1="0" y1="0" x2="0" y2="1">
      <stop offset="0%" stop-color="#ccfbf1"/><stop offset="100%" stop-color="#ffffff"/>
    </linearGradient>
  </defs>
  <g clip-path="url(#cyuki-tanaka)">
    <rect width="144" height="144" fill="url(#byuki-tanaka)"/>
    <circle cx="112" cy="26" r="30" fill="#14b8a6" opacity="0.25"/>
    <!-- shoulders -->
    <path d="M18 144v-14c0-20 18-30 54-30s54 10 54 30v14z" fill="#0f766e"/>
    <path d="M60 100h24v12c0 7-24 7-24 0z" fill="#f1c6a4"/>
    <!-- head -->
    <circle cx="72" cy="66" r="26" fill="#f1c6a4"/>
    <!-- hair -->
    <path d="M46 48a26 26 0 0 1 52 0v6c0 4-4 4-5 1-3-9-12-13-21-13s-18 4-21 13c-1 3-5 3-5-1zM44 52h8v30c0 4-8 4-8 0zM92 52h8v30c0 4-8 4-8 0z" fill="#2f2a33"/>
    <!-- features -->
    <circle cx="63" cy="66" r="2.6" fill="#36302f"/>
    <circle cx="81" cy="66" r="2.6" fill="#36302f"/>
    <path d="M66 78c4 3 8 3 12 0" stroke="#b9735c" stroke-width="2.4" fill="none" stroke-linecap="round"/>
    <rect x="56" y="104" width="32" height="7" rx="3.5" fill="#ffffff" opacity="0.85"/>
  </g>
  <circle cx="72" cy="72" r="68" fill="none" stroke="#0f766e" stroke-opacity="0.25" stroke-width="3"/>
</svg>
